<svg xmlns="http://www.w3.org/2000/svg" xmlns:xlink="http://www.w3.org/1999/xlink" viewBox="0 0 200 80"><defs><style>.cls-1{isolation:isolate;}.cls-2{fill:url(#linear-gradient);}.cls-3{fill:url(#linear-gradient-2);}.cls-4{fill:#c49a6c;opacity:0.48;}.cls-4,.cls-6{mix-blend-mode:multiply;}.cls-5{fill:url(#linear-gradient-3);}.cls-6{fill:#27aae1;opacity:0.28;}.cls-7{fill:#fff200;opacity:0.63;mix-blend-mode:overlay;}.cls-8{fill:url(#linear-gradient-4);}</style><linearGradient id="linear-gradient" x1="83.01" y1="28.43" x2="87.87" y2="18.24" gradientUnits="userSpaceOnUse"><stop offset="0" stop-color="#febd14"/><stop offset="1" stop-color="#fece2f"/></linearGradient><linearGradient id="linear-gradient-2" x1="84.21" y1="29.71" x2="89.9" y2="19.62" gradientUnits="userSpaceOnUse"><stop offset="0" stop-color="#fea914"/><stop offset="1" stop-color="#fece2f"/></linearGradient><linearGradient id="linear-gradient-3" x1="82.87" y1="38" x2="88.77" y2="30.93" gradientUnits="userSpaceOnUse"><stop offset="0" stop-color="#2bd2fd"/><stop offset="1" stop-color="#46fffd"/></linearGradient><linearGradient id="linear-gradient-4" x1="80.55" y1="36.07" x2="86.45" y2="28.99" xlink:href="#linear-gradient-3"/></defs><title>shovandigital-logo</title><g class="cls-1"><g id="Layer_1" data-name="Layer 1"><path d="M18.74,7a21.4,21.4,0,0,1,3.44.26A17.53,17.53,0,0,1,24.91,8l5.53-1.12v12a10.35,10.35,0,0,1-6.82-2.41,9.3,9.3,0,0,1-3-6.3,15,15,0,0,0-2.77-.23,6.51,6.51,0,0,0-1,.06l-.67.12-.59.12a5.27,5.27,0,0,0-.41,1.11c-.08.35-.16.78-.24,1.27a10,10,0,0,0-.12,1.61,6.48,6.48,0,0,0,1.39,4.59,10.47,10.47,0,0,0,4.5,2.47,34.66,34.66,0,0,1,3.76,1.62,17.15,17.15,0,0,1,3.56,2.38,11.78,11.78,0,0,1,2.65,3.33,9,9,0,0,1,1,4.32q0,6.12-3.77,9T17.44,44.73a26.39,26.39,0,0,1-4.59-.32,24.77,24.77,0,0,1-2.64-.62l-4.94.94V31.56a10.4,10.4,0,0,1,4.05.85,9,9,0,0,1,3,2.15,10.11,10.11,0,0,1,1.95,3.17,13,13,0,0,1,.82,4,7,7,0,0,0,.88.06h1l1.27,0q.68,0,1.26-.09l1.35-.11a8.59,8.59,0,0,0,.36-1.06c.07-.36.15-.8.23-1.36a14,14,0,0,0,.12-2A6.44,6.44,0,0,0,20.32,33a11.31,11.31,0,0,0-3.11-2.68,39,39,0,0,0-4-2.06,23.85,23.85,0,0,1-4-2.23A11,11,0,0,1,6,22.79,9.32,9.32,0,0,1,4.8,17.73a12.27,12.27,0,0,1,.7-4.23,8.35,8.35,0,0,1,2.32-3.38,11.44,11.44,0,0,1,4.3-2.27A22.76,22.76,0,0,1,18.74,7Z"/><path d="M35.85,7.67h3.47L48.62,6V20.38a6.47,6.47,0,0,1,1.88-1.65,11.19,11.19,0,0,1,2.68-1.17,13.9,13.9,0,0,1,4.2-.53,17.08,17.08,0,0,1,2.74.23,8.14,8.14,0,0,1,2.53.86,5.13,5.13,0,0,1,1.85,1.67,4.93,4.93,0,0,1,.71,2.77V40.85h3.47v3H55.91V20.67a1.43,1.43,0,0,1-.35-.05,5.53,5.53,0,0,0-1.29-.12,4.8,4.8,0,0,0-2.21.5,7.5,7.5,0,0,0-1.68,1.14,7.16,7.16,0,0,0-1.14,1.33,10.2,10.2,0,0,0-.62,1V40.85h3.47v3H35.85v-3h3.47V10.62H35.85Z"/><path d="M71.32,30.73A24.86,24.86,0,0,1,72,24.35a9.11,9.11,0,0,1,2.35-4.23,9.69,9.69,0,0,1,4.24-2.36A23.81,23.81,0,0,1,85,17a23.88,23.88,0,0,1,6.38.73,9.69,9.69,0,0,1,4.27,2.36A9.2,9.2,0,0,1,98,24.35a24.9,24.9,0,0,1,.7,6.38,25,25,0,0,1-.7,6.39,9.2,9.2,0,0,1-2.35,4.23,9.67,9.67,0,0,1-4.27,2.35,23.84,23.84,0,0,1-6.38.74,23.77,23.77,0,0,1-6.41-.74,9.67,9.67,0,0,1-4.24-2.35A9.11,9.11,0,0,1,72,37.12,24.94,24.94,0,0,1,71.32,30.73Zm9.65,0c0,1.53,0,3,.15,4.27s.22,2.44.38,3.38c.16,1.14.33,2.16.53,3.06a3.15,3.15,0,0,0,.76.18,11.34,11.34,0,0,0,2.24.17,11.8,11.8,0,0,0,2.23-.17,3.13,3.13,0,0,0,.77-.18c.2-.9.37-1.92.53-3.06.12-.94.23-2.07.35-3.38s.18-2.74.18-4.27-.06-2.94-.18-4.23-.23-2.43-.35-3.41S88.23,21,88,20c-.24,0-.51-.1-.82-.18l-1-.12c-.37,0-.77-.06-1.2-.06s-.94,0-1.3.06l-.94.12L82,20c-.2.94-.37,2-.53,3.06s-.29,2.11-.38,3.41S81,29.2,81,30.73Z"/><path d="M99.32,17.44h12.3l7.59,15.12,5.29-12.12h-4.71v-3H132v3h-4.12L117.09,45.62h-1.24L102.5,20.44H99.32Z"/><path d="M156.62,40.91h.76a9.42,9.42,0,0,0,1.06-.06l1.29-.12v2.83c-.7.11-1.39.21-2,.29s-1.14.14-1.77.18-1.14.06-1.53.06A7.46,7.46,0,0,1,150,43a6.78,6.78,0,0,1-2.12-2.3,10.35,10.35,0,0,1-3,2.62,7.52,7.52,0,0,1-3.85,1q-4,0-5.94-1.5c-1.3-1-1.94-2.73-1.94-5.2,0-.87,0-1.69,0-2.48a18.84,18.84,0,0,1,.15-2q.12-1.06.24-1.89l13.64-3.35c0-1.14-.07-2.18-.11-3.15s-.08-1.77-.12-2.44-.14-1.49-.18-2.12l-.53-.11c-.19,0-.49-.08-.88-.12a14.1,14.1,0,0,0-1.41-.06c-.35,0-.69,0-1,0s-.63.05-.94.09a17.36,17.36,0,0,1-.59,2,7.12,7.12,0,0,1-1.29,2.18,7.64,7.64,0,0,1-2.33,1.76,8,8,0,0,1-3.67.74V17.73l3.82-.35,3.65-.24c1.29-.07,2.55-.11,3.76-.11a22.37,22.37,0,0,1,6,.64,6.11,6.11,0,0,1,3.35,2.24,8.9,8.9,0,0,1,1.47,4.23,54.89,54.89,0,0,1,.33,6.59ZM143,41.14a4.54,4.54,0,0,0,2.26-1.5,16.77,16.77,0,0,0,2.09-2.91V30.5l-4.47,1.23c-.08.63-.14,1.27-.17,1.91s-.06,1.29-.06,1.92,0,1.51,0,2.17a14.46,14.46,0,0,0,.14,1.77C142.83,40.09,142.89,40.64,143,41.14Z"/><path d="M162.38,18.5h3.47l8.88-1.71v4.12c.08-.12.3-.39.65-.82A6.61,6.61,0,0,1,177,18.76a11.61,11.61,0,0,1,2.76-1.2,14,14,0,0,1,4.18-.53,17.17,17.17,0,0,1,2.74.23,8.14,8.14,0,0,1,2.53.86A5.13,5.13,0,0,1,191,19.79a4.93,4.93,0,0,1,.7,2.77V40.85h3.47v3H182.44V20.67a1.37,1.37,0,0,1-.35-.05,5.56,5.56,0,0,0-1.3-.12,4.75,4.75,0,0,0-2.2.5,7.5,7.5,0,0,0-1.68,1.14,7.64,7.64,0,0,0-1.15,1.33,9.7,9.7,0,0,0-.61,1V40.85h3.47v3H162.38v-3h3.47V21.44h-3.47Z"/><path d="M64.1,54.79l1.1,0,1.42,0,1.48,0,1.28,0a12,12,0,0,1,3.32.4A5.14,5.14,0,0,1,75,56.36a5.57,5.57,0,0,1,1.33,2.38,15.41,15.41,0,0,1,0,7.23A5.45,5.45,0,0,1,75,68.35a5.12,5.12,0,0,1-2.31,1.29,12,12,0,0,1-3.32.4H67.94l-1.47,0-1.34,0H61V68.51h2.19V56.21H61V54.79Zm3.23,1.1V68.76h3a6.12,6.12,0,0,0,.66,0l.5,0c.13-.56.24-1.17.34-1.84s.17-1.25.25-2a24,24,0,0,0,.12-2.48A24.21,24.21,0,0,0,72,59.83c-.08-.77-.17-1.43-.25-2s-.21-1.25-.34-1.77L71,56c-.18,0-.39-.05-.65-.07s-.56,0-.92,0Z"/><path d="M78.62,59.07h1.45L84,58.48v10.2h1.46v1.26h-6.8V68.68h1.45V60.31H78.62Zm1.45-3.84a2.32,2.32,0,0,1,.44-1.54,1.92,1.92,0,0,1,1.51-.5,1.9,1.9,0,0,1,1.53.5A2.44,2.44,0,0,1,84,55.23a2.2,2.2,0,0,1-.45,1.54,2.58,2.58,0,0,1-3,0A2.25,2.25,0,0,1,80.07,55.23Z"/><path d="M95.2,72.75h1a2,2,0,0,0,1-.16.65.65,0,0,0,.21-.55v-.37H91.09a9.35,9.35,0,0,1-2-.19,3.08,3.08,0,0,1-1.29-.57,2.09,2.09,0,0,1-.69-1,4.42,4.42,0,0,1-.21-1.44,3.09,3.09,0,0,1,.17-1.11,2.7,2.7,0,0,1,.43-.79,2.32,2.32,0,0,1,.57-.52,2.61,2.61,0,0,1,.58-.29,2.61,2.61,0,0,1-1.13-1.22,5.89,5.89,0,0,1,0-3.77,2.47,2.47,0,0,1,.92-1.21,4.47,4.47,0,0,1,1.68-.67,13.86,13.86,0,0,1,2.53-.2h3a4,4,0,0,0,1-.1,1,1,0,0,0,.53-.31.9.9,0,0,0,.21-.52,5.47,5.47,0,0,0,0-.75h1.33A3.37,3.37,0,0,1,98.23,59a2.05,2.05,0,0,1-1.21.81,3.63,3.63,0,0,1,1,2.84,5.08,5.08,0,0,1-.28,1.82,2.66,2.66,0,0,1-.92,1.2,4.47,4.47,0,0,1-1.68.66,13,13,0,0,1-2.54.21A13.23,13.23,0,0,1,90,66.27a3.91,3.91,0,0,0-.6.21,2.59,2.59,0,0,0-.58.34,1.81,1.81,0,0,0-.44.48,1.1,1.1,0,0,0-.18.62H95.3a4.36,4.36,0,0,1,2.89.75A2.94,2.94,0,0,1,99,71a6.67,6.67,0,0,1-.12,1.36,2.11,2.11,0,0,1-.43.93,1.93,1.93,0,0,1-.87.56,5,5,0,0,1-1.46.18h-1Zm-4-10.15c0,.39,0,.75,0,1.08s.08.61.13.84a6.64,6.64,0,0,0,.17.76l.27,0,.31,0H93l.32,0,.27,0c0-.23.11-.48.18-.76s.07-.51.11-.84a9.66,9.66,0,0,0,0-2.15c0-.34-.08-.62-.11-.85s-.13-.54-.18-.77l-.29,0a2.33,2.33,0,0,0-.32,0l-.42,0-.43,0a2.16,2.16,0,0,0-.31,0l-.27,0a6.83,6.83,0,0,0-.17.77c0,.23-.09.51-.13.85S91.23,62.22,91.23,62.6Z"/><path d="M99.91,59.07h1.45l3.89-.59v10.2h1.46v1.26h-6.8V68.68h1.45V60.31H99.91Zm1.45-3.84a2.32,2.32,0,0,1,.44-1.54,1.92,1.92,0,0,1,1.51-.5,1.9,1.9,0,0,1,1.53.5,2.44,2.44,0,0,1,.41,1.54,2.2,2.2,0,0,1-.45,1.54,2.58,2.58,0,0,1-3,0A2.25,2.25,0,0,1,101.36,55.23Z"/><path d="M108.8,57.74l3.9-1.06v2.2h3v1.23h-3v8.6h.51c1,0,1.43-.72,1.43-2.17h1.26a10.33,10.33,0,0,1-.09,1.43,2.06,2.06,0,0,1-.47,1.11,2.32,2.32,0,0,1-1.13.71,6.72,6.72,0,0,1-2.08.25,5,5,0,0,1-1.55-.21,2.92,2.92,0,0,1-1-.55,2.11,2.11,0,0,1-.56-.77,2.14,2.14,0,0,1-.18-.86Z"/><path d="M127.31,68.71h.32a3.25,3.25,0,0,0,.44,0l.54-.05v1.19l-.86.12L127,70l-.64,0a3.15,3.15,0,0,1-1.82-.44,2.87,2.87,0,0,1-.89-1,4.15,4.15,0,0,1-1.24,1.1,3.2,3.2,0,0,1-1.62.41,4.08,4.08,0,0,1-2.49-.63,2.61,2.61,0,0,1-.81-2.18c0-.36,0-.71,0-1s0-.61.06-.86.07-.56.1-.79l5.72-1.4c0-.48,0-.92,0-1.32s0-.74,0-1-.06-.63-.07-.89L123,60l-.37-.05-.6,0h-.41l-.4,0a7.48,7.48,0,0,1-.24.82,2.88,2.88,0,0,1-.55.91,3,3,0,0,1-1,.74,3.32,3.32,0,0,1-1.54.31V59l1.6-.15,1.53-.1c.54,0,1.07,0,1.58,0a9.39,9.39,0,0,1,2.52.26,2.62,2.62,0,0,1,1.41.94,3.82,3.82,0,0,1,.61,1.78,23.35,23.35,0,0,1,.14,2.76Zm-5.72.1a2,2,0,0,0,1-.63,7.08,7.08,0,0,0,.87-1.22V64.35l-1.87.52c0,.26-.06.52-.07.8s0,.53,0,.8,0,.63,0,.91a4.1,4.1,0,0,0,.06.74C121.53,68.36,121.56,68.59,121.59,68.81Z"/><path d="M129.23,54.79h1.45l3.9-.72V68.71c.64,0,1-.17,1.22-.49a4,4,0,0,0,.26-1.68h1.25a12.31,12.31,0,0,1-.07,1.41,2.18,2.18,0,0,1-.43,1.1,2.25,2.25,0,0,1-1.1.73,6.56,6.56,0,0,1-2.07.26,3.54,3.54,0,0,1-1.49-.27,2.55,2.55,0,0,1-.9-.65,2.32,2.32,0,0,1-.44-.79,2.57,2.57,0,0,1-.13-.68V56h-1.45Z"/><ellipse cx="84.94" cy="30.77" rx="9.24" ry="11.88"/><polygon class="cls-2" points="79.96 26.93 85.65 30.79 89.09 18.04 89.03 18.04 79.96 26.93"/><polygon class="cls-3" points="82.3 29.43 85.65 30.79 89.09 18.04 82.3 29.43"/><polygon class="cls-4" points="79.96 26.93 85.65 30.79 86.31 28.35 79.96 26.93"/><polygon class="cls-5" points="89.87 34.74 83.82 31.74 80.51 42.64 80.58 42.64 89.87 34.74"/><polygon class="cls-6" points="89.33 34.22 83.82 31.74 83.61 32.44 89.33 34.22"/><polygon class="cls-7" points="79.96 26.93 88.94 18.59 89.09 18.04 89.03 18.04 79.96 26.93"/><polygon class="cls-8" points="79.96 26.93 79.47 29.66 89.87 34.74 90.48 30.27 79.96 26.93"/></g></g></svg>